<svg width="202" height="56" viewBox="0 0 202 56" fill="none" xmlns="http://www.w3.org/2000/svg">
<path d="M14.6452 24.9468C14.9551 23.9521 14.737 22.8302 13.9909 22.009C13.2447 21.1877 12.1427 20.887 11.1325 21.1183C10.8226 22.113 11.0407 23.235 11.7869 24.0562C12.5445 24.8659 13.635 25.1666 14.6452 24.9468Z" fill="#60666C"/>
<path d="M22.9206 11.1107C23.2305 10.116 23.0124 8.99405 22.2663 8.17283C21.5201 7.35162 20.4181 7.05089 19.4079 7.28222C19.098 8.27693 19.3161 9.39887 20.0622 10.2201C20.8199 11.0297 21.9104 11.3305 22.9206 11.1107Z" fill="#60666C"/>
<path d="M21.7155 30.9844C22.4846 30.1863 22.7142 29.0644 22.4272 28.0581C21.4285 27.8036 20.3265 28.0928 19.5574 28.8909C18.7883 29.689 18.5587 30.8109 18.8457 31.8172C19.8443 32.0716 20.9464 31.7941 21.7155 30.9844Z" fill="#60666C"/>
<path d="M30.235 16.2808C31.0041 15.4827 31.2337 14.3608 30.9467 13.3545C29.948 13.1 28.846 13.3892 28.0769 14.1873C27.3078 14.9854 27.0782 16.1073 27.3652 17.1136C28.3639 17.368 29.4659 17.0789 30.235 16.2808Z" fill="#60666C"/>
<path d="M65.8883 25.2821C65.6013 24.9351 65.0962 24.9004 64.7633 25.178L59.391 29.6658V20.3201C59.391 19.8806 59.0352 19.5105 58.5875 19.5105C58.1513 19.5105 57.7839 19.869 57.7839 20.3201V35.6919L54.8223 32.9275C54.5009 32.6268 53.9958 32.6384 53.6973 32.9738C53.3988 33.2976 53.4103 33.8066 53.7432 34.1073L57.7839 37.8895V45.8935C57.7839 46.2867 57.5199 46.4718 57.4051 46.5412C57.2903 46.6106 56.9919 46.7378 56.659 46.5296L51.1489 43.1175V20.2623L56.7623 15.0112C57.0837 14.7104 57.1067 14.2015 56.8082 13.8777C56.5097 13.5538 56.0046 13.5307 55.6832 13.8314L51.1489 18.0763V10.5465C51.1489 10.107 50.793 9.73688 50.3454 9.73688C49.9091 9.73688 49.5418 10.0954 49.5418 10.5465V24.5072L43.366 19.3254C43.0216 19.0363 42.528 19.0825 42.241 19.4295C41.954 19.7765 41.9999 20.2739 42.3443 20.563L49.5418 26.6123V42.1459L38.1314 35.0904C37.8788 34.9285 37.5574 34.9285 37.2934 35.0904L25.8715 42.1459V26.6007L33.069 20.5515C33.4019 20.2623 33.4478 19.765 33.1723 19.418C32.8854 19.0825 32.3917 19.0363 32.0474 19.3139L25.8715 24.4956V19.8922C25.8715 19.8922 25.8715 19.8922 25.8715 19.8806V10.5465C25.8715 10.107 25.5157 9.73688 25.068 9.73688C24.6318 9.73688 24.2644 10.0954 24.2644 10.5465V18.0763L19.7645 13.8314C19.4431 13.5307 18.938 13.5422 18.6396 13.8777C18.3411 14.2015 18.3526 14.7104 18.6855 15.0112L24.2874 20.2623V43.1175L18.7658 46.5296C18.4329 46.7378 18.1345 46.6106 18.0197 46.5412C17.9049 46.4833 17.6409 46.2867 17.6409 45.8935V37.8895L21.6931 34.0957C22.0145 33.795 22.0374 33.2861 21.739 32.9622C21.4405 32.6384 20.9354 32.6152 20.614 32.916L17.6523 35.6919V31.3198V31.3082V20.3201C17.6523 19.8806 17.2965 19.5105 16.8488 19.5105C16.4126 19.5105 16.0452 19.869 16.0452 20.3201V29.6658L10.6729 25.178C10.3286 24.9004 9.83495 24.9467 9.54797 25.2821C9.26099 25.6291 9.31838 26.1265 9.65128 26.4156L16.0452 31.7593V45.8935C16.0452 46.7609 16.4929 47.5243 17.2391 47.9407C17.5949 48.1489 17.9852 48.2414 18.3755 48.2414C18.8003 48.2414 19.2135 48.1258 19.5923 47.8945L24.2759 45.0028V52.5094C24.2759 53.3654 24.7236 54.1403 25.4697 54.5567C25.8256 54.7649 26.2159 54.8574 26.6062 54.8574C27.0309 54.8574 27.4442 54.7418 27.823 54.5104L37.7181 48.4149L47.6018 54.5104C48.3365 54.9615 49.2089 54.9731 49.9551 54.5567C50.7012 54.1403 51.1489 53.3654 51.1489 52.5094V45.0028L55.8325 47.8945C56.5671 48.3455 57.4396 48.3571 58.1857 47.9407C58.9319 47.5243 59.3796 46.7494 59.3796 45.8935V31.7593L65.7735 26.4156C66.1179 26.138 66.1638 25.6291 65.8883 25.2821ZM49.5533 52.5094C49.5533 52.9027 49.2893 53.0878 49.1745 53.1572C49.0597 53.215 48.7612 53.3422 48.4283 53.1456L38.1314 46.7956C37.8788 46.6337 37.5574 46.6337 37.2934 46.7956L26.985 53.1456C26.6521 53.3538 26.3536 53.2266 26.2389 53.1572C26.1241 53.0878 25.86 52.9027 25.86 52.5094V44.0197L37.7181 36.7097L49.5533 44.0197V52.5094Z" fill="#60666C"/>
<path d="M63.6374 24.0446C64.3835 23.2233 64.6016 22.1014 64.2917 21.1067C63.2815 20.8754 62.191 21.1877 61.4333 21.9973C60.6872 22.8185 60.4691 23.9405 60.779 24.9352C61.7892 25.1665 62.8797 24.8658 63.6374 24.0446Z" fill="#60666C"/>
<path d="M55.36 10.2087C56.1062 9.38747 56.3243 8.26552 56.0143 7.27081C55.0042 7.03948 53.9136 7.35178 53.156 8.16143C52.4098 8.98264 52.1917 10.1046 52.5017 11.0993C53.5233 11.3306 54.6139 11.0299 55.36 10.2087Z" fill="#60666C"/>
<path d="M52.9961 28.0697C52.7091 29.0759 52.9502 30.1863 53.7078 30.996C54.4769 31.7941 55.579 32.0832 56.5776 31.8287C56.8646 30.834 56.6236 29.7121 55.8659 28.9024C55.0968 28.0928 53.9948 27.8152 52.9961 28.0697Z" fill="#60666C"/>
<path d="M48.0718 17.1137C48.3588 16.119 48.1177 14.997 47.3601 14.1874C46.591 13.3893 45.489 13.1002 44.4903 13.3546C44.2033 14.3609 44.4443 15.4713 45.202 16.2809C45.9711 17.079 47.0616 17.3682 48.0718 17.1137Z" fill="#60666C"/>
<path d="M92.6242 17.6547V32.3074H90.4021L82.3855 22.3878V32.3074H79.6992V17.6547H81.9214L89.938 27.5743V17.6547H92.6242Z" fill="#60666C"/>
<path d="M101.807 31.5422C100.612 30.8903 99.6838 29.9975 99.0087 28.8355C98.3336 27.6877 97.9961 26.3981 97.9961 24.9669C97.9961 23.5498 98.3336 22.2602 99.0087 21.0982C99.6838 19.9504 100.626 19.0434 101.807 18.3916C103.003 17.7397 104.339 17.4138 105.816 17.4138C107.293 17.4138 108.629 17.7397 109.824 18.3916C111.02 19.0434 111.948 19.9362 112.623 21.084C113.298 22.2319 113.635 23.5214 113.635 24.9527C113.635 26.384 113.298 27.6877 112.623 28.8214C111.948 29.9692 111.005 30.862 109.824 31.5138C108.629 32.1657 107.293 32.4916 105.816 32.4916C104.339 32.52 102.989 32.194 101.807 31.5422ZM108.432 29.4732C109.205 29.0339 109.81 28.4246 110.26 27.631C110.71 26.8374 110.921 25.9588 110.921 24.981C110.921 24.0032 110.696 23.1246 110.26 22.3311C109.81 21.5375 109.205 20.9281 108.432 20.4889C107.658 20.0496 106.786 19.8228 105.816 19.8228C104.845 19.8228 103.973 20.0496 103.2 20.4889C102.426 20.9281 101.807 21.5375 101.372 22.3311C100.921 23.1246 100.71 24.0032 100.71 24.981C100.71 25.9588 100.936 26.8374 101.372 27.631C101.822 28.4246 102.426 29.0339 103.2 29.4732C103.973 29.9125 104.845 30.1393 105.816 30.1393C106.786 30.1393 107.658 29.9125 108.432 29.4732Z" fill="#60666C"/>
<path d="M120.275 32.0383C119.234 31.7123 118.404 31.2872 117.785 30.7629L118.713 28.6514C119.304 29.1332 120.035 29.5158 120.907 29.8134C121.779 30.111 122.637 30.2669 123.509 30.2669C124.592 30.2669 125.394 30.0968 125.928 29.7426C126.463 29.3883 126.73 28.9348 126.73 28.3538C126.73 27.9287 126.575 27.5886 126.28 27.3193C125.985 27.0501 125.605 26.8375 125.141 26.6816C124.677 26.5258 124.058 26.3557 123.27 26.1573C122.159 25.8881 121.259 25.633 120.584 25.3638C119.895 25.0945 119.304 24.6835 118.812 24.1167C118.32 23.5499 118.081 22.7846 118.081 21.821C118.081 21.0133 118.306 20.2764 118.742 19.6104C119.178 18.9443 119.839 18.42 120.711 18.0232C121.597 17.6264 122.665 17.4422 123.945 17.4422C124.831 17.4422 125.703 17.5556 126.561 17.7823C127.419 18.009 128.165 18.3208 128.783 18.7459L127.925 20.8574C127.293 20.4748 126.617 20.1914 125.928 19.993C125.239 19.7946 124.564 19.6954 123.917 19.6954C122.848 19.6954 122.061 19.8796 121.54 20.2339C121.02 20.6023 120.767 21.0841 120.767 21.6793C120.767 22.1044 120.921 22.4445 121.217 22.6996C121.512 22.9689 121.892 23.1814 122.356 23.3231C122.82 23.479 123.439 23.6491 124.227 23.8475C125.31 24.1025 126.196 24.3576 126.885 24.6269C127.574 24.8961 128.165 25.3212 128.657 25.8739C129.149 26.4266 129.388 27.1918 129.388 28.1413C129.388 28.949 129.163 29.6859 128.727 30.3377C128.291 30.9896 127.63 31.5139 126.744 31.9107C125.858 32.3075 124.775 32.4917 123.495 32.4917C122.398 32.5201 121.315 32.3642 120.275 32.0383Z" fill="#60666C"/>
<path d="M137.32 19.9504H132.496V17.6406H144.844V19.9504H140.02V32.3075H137.32V19.9504Z" fill="#60666C"/>
<path d="M158.894 32.3075L155.927 28.0137C155.8 28.0278 155.617 28.0278 155.364 28.0278H152.087V32.2933H149.387V17.6547H155.378C156.644 17.6547 157.741 17.8673 158.669 18.2782C159.597 18.7034 160.315 19.2986 160.821 20.078C161.313 20.8574 161.566 21.7926 161.566 22.8696C161.566 23.975 161.299 24.9244 160.765 25.718C160.23 26.5116 159.471 27.1067 158.472 27.5035L161.819 32.3216H158.894V32.3075ZM157.91 20.7156C157.305 20.2197 156.405 19.9646 155.223 19.9646H152.059V25.803H155.223C156.405 25.803 157.291 25.5479 157.91 25.0378C158.514 24.5276 158.824 23.8049 158.824 22.8696C158.824 21.9343 158.528 21.2116 157.91 20.7156Z" fill="#60666C"/>
<path d="M168.613 30.8196C167.488 29.6859 166.926 28.0562 166.926 25.9306V17.6548H169.626V25.8172C169.626 28.6939 170.864 30.1252 173.325 30.1252C175.772 30.1252 177.01 28.6939 177.01 25.8172V17.6548H179.668V25.9306C179.668 28.0562 179.105 29.6859 177.994 30.8196C176.883 31.9533 175.322 32.5201 173.311 32.5201C171.3 32.5201 169.739 31.9533 168.613 30.8196Z" fill="#60666C"/>
<path d="M185.955 17.6548H192.312C193.859 17.6548 195.237 17.9524 196.447 18.5617C197.656 19.1711 198.585 20.0213 199.246 21.1408C199.907 22.2603 200.244 23.5357 200.244 24.9812C200.244 26.4266 199.907 27.7161 199.246 28.8215C198.585 29.9268 197.642 30.7912 196.447 31.4006C195.252 32.0099 193.859 32.3075 192.312 32.3075H185.955V17.6548ZM192.186 30.0118C193.254 30.0118 194.197 29.7993 194.998 29.3883C195.814 28.9774 196.433 28.3964 196.869 27.6311C197.305 26.8659 197.53 25.9873 197.53 24.9812C197.53 23.975 197.305 23.0964 196.869 22.3312C196.433 21.566 195.814 20.985 194.998 20.574C194.183 20.163 193.254 19.9505 192.186 19.9505H188.655V30.0118H192.186Z" fill="#60666C"/>
<path d="M107.132 44.3954H104.713V43.2334H110.915V44.3954H108.496V50.6023H107.132V44.3954Z" fill="#60666C"/>
<path d="M119.227 48.8875H115.571L114.853 50.588H113.461L116.752 43.2191H118.088L121.393 50.588H119.973L119.227 48.8875ZM118.777 47.8247L117.399 44.6079L116.035 47.8247H118.777Z" fill="#60666C"/>
<path d="M130.126 46.8327H131.406V49.7661C131.027 50.0637 130.591 50.3046 130.084 50.4605C129.578 50.6163 129.072 50.7014 128.537 50.7014C127.792 50.7014 127.117 50.5313 126.526 50.2054C125.921 49.8795 125.457 49.426 125.12 48.8592C124.782 48.2781 124.613 47.6404 124.613 46.9177C124.613 46.195 124.782 45.5432 125.12 44.9763C125.457 44.3953 125.935 43.956 126.54 43.6301C127.145 43.3041 127.82 43.1341 128.565 43.1341C129.184 43.1341 129.733 43.2333 130.239 43.4459C130.745 43.6442 131.167 43.9418 131.505 44.3386L130.647 45.1747C130.084 44.6079 129.423 44.3386 128.636 44.3386C128.115 44.3386 127.665 44.452 127.257 44.6646C126.864 44.8771 126.54 45.1889 126.315 45.5857C126.09 45.9825 125.978 46.4217 125.978 46.9319C125.978 47.4279 126.09 47.8672 126.315 48.264C126.54 48.6608 126.849 48.9725 127.257 49.1851C127.651 49.4118 128.115 49.5252 128.622 49.5252C129.198 49.5252 129.69 49.3976 130.126 49.1426V46.8327Z" fill="#60666C"/>
<path d="M136.117 43.2334H137.481V49.4403H141.307V50.6023H136.131V43.2334H136.117Z" fill="#60666C"/>
<path d="M145.289 43.2334H146.653V50.6023H145.289V43.2334Z" fill="#60666C"/>
<path d="M158.045 43.2334V50.6023H156.933L152.897 45.6141V50.6023H151.547V43.2334H152.658L156.694 48.2216V43.2334H158.045Z" fill="#60666C"/>
<path d="M168.411 49.4544V50.6023H162.926V43.2334H168.256V44.3812H164.276V46.2943H167.806V47.4138H164.276V49.4403H168.411V49.4544Z" fill="#60666C"/>
</svg>
