<svg width="180" height="46" viewBox="0 0 180 46" fill="none" xmlns="http://www.w3.org/2000/svg">
<g clip-path="url(#clip0_1411_471)">
<path d="M30.7313 1.61804V40.1446V42.472H28.3929H11.8623H9.5239V40.1446V27.8455V26.8787L10.2074 26.1984L26.0725 10.4262V1.61804H30.7313ZM1.26758 42.472V13.577H5.92637V18.0706L22.457 1.61804V8.18833L5.92637 24.6409V42.472H1.26758ZM26.0725 37.8173V16.9965L14.2007 28.8122V37.8173H26.0725Z" fill="#60666C"/>
<path fill-rule="evenodd" clip-rule="evenodd" d="M49.7192 13.5921C48.2202 13.5921 47.141 14.0297 46.2416 15.0641L45.5621 13.6716H42.6641V26.2234H47.0011V19.8381C47.0011 18.2269 47.6406 17.5506 49.1796 17.5506H50.8584V13.5921H49.7192ZM58.6331 26.6411C62.7303 26.6411 65.7082 23.8364 65.7082 19.9575C65.7082 16.0587 62.7303 13.2539 58.6331 13.2539C54.5159 13.2539 51.5579 16.0587 51.5579 19.9575C51.5579 23.8364 54.5159 26.6411 58.6331 26.6411ZM58.6331 22.7622C57.0542 22.7622 55.9149 21.6085 55.9149 19.9575C55.9149 18.2866 57.0542 17.1527 58.6331 17.1527C60.212 17.1527 61.3512 18.3064 61.3512 19.9575C61.3512 21.6085 60.212 22.7622 58.6331 22.7622ZM74.0425 26.6411C78.1397 26.6411 81.1176 23.8364 81.1176 19.9575C81.1176 16.0587 78.1397 13.2539 74.0425 13.2539C69.9253 13.2539 66.9873 16.0587 66.9873 19.9575C66.9873 23.8364 69.9253 26.6411 74.0425 26.6411ZM74.0425 22.7622C72.4636 22.7622 71.3244 21.6085 71.3244 19.9575C71.3244 18.2866 72.4636 17.1527 74.0425 17.1527C75.6414 17.1527 76.7606 18.3064 76.7606 19.9575C76.7606 21.6085 75.6414 22.7622 74.0425 22.7622ZM97.986 13.2937C96.4071 13.2937 95.0081 14.0098 94.1087 15.1436C93.3092 13.9899 92.0301 13.2937 90.4912 13.2937C89.0322 13.2937 87.7131 13.97 86.8137 15.0243L86.1941 13.6716H83.1362V26.2234H87.4932V19.3408C87.4932 17.7893 88.1328 16.9538 89.292 16.9538C90.2114 16.9538 90.691 17.6102 90.691 18.8833V26.2234H94.9081V19.3408C94.9081 17.7694 95.5277 16.9538 96.7269 16.9538C97.6462 16.9538 98.1459 17.5704 98.1459 18.8833V26.2234H102.483V18.3462C102.483 15.4022 100.684 13.2937 97.986 13.2937ZM119.171 9.13629V14.1292C118.252 13.5722 117.193 13.2539 116.034 13.2539C112.156 13.2539 109.398 16.0388 109.398 19.9575C109.398 23.8563 112.156 26.6411 116.034 26.6411C117.493 26.6411 118.812 26.1438 119.831 25.2885L120.231 26.2234H123.449V9.13629H119.171ZM116.613 22.8219C114.974 22.8219 113.775 21.5886 113.775 19.9575C113.775 18.3064 114.974 17.0731 116.613 17.0731C118.232 17.0731 119.431 18.3064 119.431 19.9575C119.431 21.5886 118.232 22.8219 116.613 22.8219ZM139.178 19.8381C139.178 16.1382 136.36 13.2539 132.302 13.2539C128.345 13.2539 125.447 16.0984 125.447 19.9376C125.447 23.7767 128.365 26.6411 132.302 26.6411C135.46 26.6411 138.018 24.8509 138.898 21.9864H134.581C134.161 22.7224 133.322 23.1601 132.302 23.1601C130.923 23.1601 130.004 22.4241 129.724 20.972H139.098C139.138 20.594 139.178 20.2161 139.178 19.8381ZM132.302 16.6554C133.602 16.6554 134.521 17.3317 134.901 18.5849H129.804C130.144 17.3317 131.023 16.6554 132.302 16.6554ZM147.392 26.6411C150.95 26.6411 153.648 24.3337 154.127 20.9322H149.87C149.511 22.0461 148.551 22.7622 147.392 22.7622C145.873 22.7622 144.794 21.5886 144.794 19.9376C144.794 18.3064 145.873 17.1527 147.392 17.1527C148.531 17.1527 149.491 17.8091 149.85 18.8435H154.087C153.608 15.5017 150.95 13.2738 147.412 13.2738C143.335 13.2738 140.437 16.0388 140.437 19.9376C140.437 23.8165 143.355 26.6411 147.392 26.6411ZM162.362 26.6411C166.459 26.6411 169.417 23.8364 169.417 19.9575C169.417 16.0587 166.459 13.2539 162.362 13.2539C158.245 13.2539 155.287 16.0587 155.287 19.9575C155.287 23.8364 158.245 26.6411 162.362 26.6411ZM162.362 22.7622C160.763 22.7622 159.624 21.6085 159.624 19.9575C159.624 18.2866 160.763 17.1527 162.362 17.1527C163.941 17.1527 165.08 18.3064 165.08 19.9575C165.08 21.6085 163.941 22.7622 162.362 22.7622ZM178.511 13.5921C177.012 13.5921 175.912 14.0297 175.033 15.0641L174.354 13.6716H171.436V26.2234H175.793V19.8381C175.793 18.2269 176.432 17.5506 177.971 17.5506H179.65V13.5921H178.511Z" fill="#60666C"/>
<path fill-rule="evenodd" clip-rule="evenodd" d="M75.3398 38.6954H76.559V32.0316H75.3398V38.6954ZM80.6162 38.6954H81.8354V34.0208L85.3729 38.6954H86.5721V32.0316H85.3729V36.7261L81.8354 32.0316H80.6162V38.6954ZM92.4081 38.6954H93.6273V33.1456H95.7658V32.0316H90.2696V33.1456H92.4081V38.6954ZM104.42 33.1456V32.0316H99.3833V38.6954H104.42V37.6014H100.582V35.8509H104.04V34.7568H100.582V33.1456H104.42ZM113.614 38.6954L111.955 36.3283C112.914 36.0299 113.574 35.2541 113.574 34.2396C113.574 32.9467 112.494 32.0316 111.055 32.0316H108.157V38.6954H109.356V36.4675H110.656L112.234 38.6954H113.614ZM109.356 33.1456H110.915C111.755 33.1456 112.334 33.5633 112.334 34.2396C112.334 34.9359 111.755 35.3536 110.915 35.3536H109.356V33.1456ZM117.251 38.6954H118.47V32.0316H117.251V38.6954ZM125.685 38.8148C127.604 38.8148 129.203 37.2433 129.203 35.3735C129.203 33.4837 127.604 31.9322 125.685 31.9322C123.787 31.9322 122.188 33.4837 122.188 35.3735C122.188 37.2433 123.787 38.8148 125.685 38.8148ZM125.685 37.7008C124.466 37.7008 123.407 36.6466 123.407 35.3735C123.407 34.1004 124.466 33.0262 125.685 33.0262C126.924 33.0262 127.964 34.1004 127.964 35.3735C127.964 36.6466 126.924 37.7008 125.685 37.7008ZM138.356 38.6954L136.698 36.3283C137.657 36.0299 138.297 35.2541 138.297 34.2396C138.297 32.9467 137.237 32.0316 135.798 32.0316H132.9V38.6954H134.099V36.4675H135.399L136.977 38.6954H138.356ZM134.099 33.1456H135.658C136.498 33.1456 137.077 33.5633 137.077 34.2396C137.077 34.9359 136.498 35.3536 135.658 35.3536H134.099V33.1456ZM144.452 38.8148C146.051 38.8148 146.971 37.9594 146.971 36.7659C146.971 35.5525 146.031 35.1149 144.632 34.7966C143.573 34.5579 143.073 34.359 143.073 33.8219C143.073 33.3644 143.533 32.9467 144.212 32.9467C144.872 32.9467 145.532 33.2252 146.131 33.7423L146.791 32.8472C146.111 32.2703 145.312 31.9123 144.252 31.9123C142.833 31.9123 141.854 32.7676 141.854 33.9214C141.854 35.1746 142.813 35.5724 144.192 35.8907C145.272 36.1493 145.751 36.3283 145.751 36.8853C145.751 37.3627 145.312 37.7605 144.492 37.7605C143.613 37.7605 142.893 37.4223 142.294 36.8654L141.594 37.7207C142.334 38.4169 143.293 38.8148 144.452 38.8148Z" fill="#60666C"/>
</g>
<defs>
<clipPath id="clip0_1411_471">
<rect width="179.517" height="45.3933" fill="white" transform="translate(0.130859 0.483215)"/>
</clipPath>
</defs>
</svg>
