<svg width="228" height="41" viewBox="0 0 228 41" fill="none" xmlns="http://www.w3.org/2000/svg">
<path d="M70.7656 16.6291V21.4409H68.0751V16.6805L63.3711 9.36871H66.5129L69.4291 14.2147L72.3973 9.36871H75.461L70.7656 16.6291Z" fill="#60666C"/>
<path d="M89.98 17.8278C89.6502 18.5812 89.1989 19.2405 88.6261 19.8141C88.0533 20.3792 87.359 20.833 86.5605 21.1583C85.762 21.4837 84.8941 21.6464 83.9481 21.6464C83.0021 21.6464 82.1342 21.4837 81.3444 21.1583C80.5546 20.833 79.8689 20.3878 79.2874 19.8312C78.7146 19.2747 78.2633 18.6155 77.9422 17.862C77.6211 17.1086 77.4648 16.3038 77.4648 15.439V15.4048C77.4648 14.54 77.6297 13.7352 77.9509 12.9818C78.2807 12.2283 78.732 11.5691 79.3048 10.9954C79.8776 10.4304 80.5719 9.97658 81.3704 9.65123C82.1689 9.32588 83.0368 9.16321 83.9828 9.16321C84.9288 9.16321 85.7967 9.32588 86.5865 9.65123C87.3763 9.97658 88.062 10.4218 88.6435 10.9783C89.2163 11.5348 89.6676 12.1941 89.9887 12.9475C90.3098 13.701 90.4661 14.5058 90.4661 15.3705V15.4048C90.4747 16.261 90.3098 17.0743 89.98 17.8278ZM87.6627 15.4048C87.6627 14.8911 87.5759 14.403 87.3937 13.9407C87.2114 13.4784 86.9597 13.076 86.6212 12.7335C86.2914 12.391 85.8922 12.117 85.4409 11.9116C84.9896 11.7146 84.4949 11.6119 83.9568 11.6119C83.41 11.6119 82.9153 11.7061 82.464 11.903C82.0127 12.0999 81.6308 12.3653 81.3097 12.7164C80.9885 13.0588 80.7368 13.4612 80.5546 13.915C80.3723 14.3688 80.2855 14.8568 80.2855 15.3705V15.4048C80.2855 15.9185 80.3723 16.4065 80.5546 16.8689C80.7368 17.3312 80.9885 17.7336 81.327 18.0761C81.6568 18.4185 82.0474 18.6925 82.4987 18.898C82.95 19.1035 83.4447 19.1977 83.9915 19.1977C84.5296 19.1977 85.0243 19.1035 85.4756 18.9066C85.9269 18.7096 86.3175 18.4442 86.6386 18.0932C86.9597 17.7507 87.2114 17.3483 87.3937 16.8945C87.5759 16.4408 87.6627 15.9527 87.6627 15.439V15.4048Z" fill="#60666C"/>
<path d="M103.832 18.5727C103.58 19.2491 103.224 19.8142 102.755 20.268C102.287 20.7218 101.723 21.0642 101.063 21.2868C100.395 21.5094 99.6569 21.6208 98.8411 21.6208C97.2007 21.6208 95.9076 21.1755 94.9616 20.2765C94.0155 19.3776 93.5469 18.0419 93.5469 16.261V9.36877H96.2374V16.1926C96.2374 17.1772 96.4717 17.922 96.9404 18.4272C97.409 18.9238 98.0513 19.1806 98.8758 19.1806C99.7003 19.1806 100.351 18.9409 100.811 18.4529C101.28 17.9734 101.514 17.2457 101.514 16.2782V9.36877H104.205V16.1754C104.205 17.1001 104.083 17.8964 103.832 18.5727Z" fill="#60666C"/>
<path d="M115.253 21.4324L112.632 17.571H110.515V21.4324H107.824V9.36877H113.414C114.872 9.36877 116 9.71981 116.816 10.4219C117.623 11.1239 118.031 12.1 118.031 13.35V13.3843C118.031 14.3603 117.788 15.1566 117.302 15.773C116.816 16.3895 116.182 16.8433 115.41 17.1258L118.395 21.4324H115.253ZM115.306 13.487C115.306 12.9134 115.123 12.4853 114.75 12.1942C114.377 11.9031 113.856 11.7661 113.197 11.7661H110.523V15.2336H113.249C113.917 15.2336 114.42 15.0795 114.776 14.7713C115.132 14.4631 115.306 14.0435 115.306 13.5298V13.487Z" fill="#60666C"/>
<path d="M137.221 20.3878C136.882 20.6532 136.509 20.8758 136.11 21.0727C135.711 21.2611 135.268 21.4066 134.791 21.5008C134.313 21.595 133.775 21.6464 133.185 21.6464C132.291 21.6464 131.458 21.4837 130.686 21.1669C129.913 20.8415 129.254 20.4049 128.689 19.8484C128.134 19.2919 127.691 18.6326 127.379 17.8706C127.066 17.1086 126.91 16.3038 126.91 15.439V15.4048C126.91 14.54 127.066 13.7352 127.379 12.9818C127.691 12.2283 128.134 11.5691 128.689 10.9954C129.245 10.4304 129.922 9.97658 130.703 9.65123C131.484 9.32588 132.343 9.16321 133.289 9.16321C133.862 9.16321 134.383 9.20602 134.851 9.3002C135.32 9.39438 135.754 9.5228 136.136 9.67692C136.518 9.83959 136.874 10.0365 137.204 10.2591C137.533 10.4903 137.828 10.7386 138.115 11.0211L136.405 12.9732C135.928 12.5451 135.442 12.2112 134.947 11.9715C134.452 11.7318 133.897 11.6119 133.281 11.6119C132.769 11.6119 132.291 11.7061 131.857 11.903C131.423 12.0999 131.041 12.3653 130.729 12.7164C130.416 13.0588 130.173 13.4612 129.991 13.915C129.818 14.3688 129.731 14.8568 129.731 15.3705V15.4048C129.731 15.9185 129.818 16.4065 129.991 16.8689C130.165 17.3312 130.408 17.7336 130.72 18.0761C131.033 18.4185 131.406 18.6925 131.84 18.898C132.274 19.1035 132.76 19.1977 133.281 19.1977C133.984 19.1977 134.574 19.0692 135.051 18.821C135.537 18.5641 136.014 18.2216 136.492 17.785L138.202 19.4888C137.88 19.8227 137.551 20.1223 137.221 20.3878Z" fill="#60666C"/>
<path d="M153.191 17.8278C152.861 18.5812 152.41 19.2405 151.837 19.8141C151.264 20.3792 150.57 20.833 149.771 21.1583C148.973 21.4837 148.105 21.6464 147.159 21.6464C146.213 21.6464 145.345 21.4837 144.555 21.1583C143.766 20.833 143.08 20.3878 142.498 19.8312C141.926 19.2747 141.474 18.6155 141.153 17.862C140.832 17.1086 140.676 16.3038 140.676 15.439V15.4048C140.676 14.54 140.841 13.7352 141.162 12.9818C141.492 12.2283 141.943 11.5691 142.516 10.9954C143.089 10.4304 143.783 9.97658 144.581 9.65123C145.38 9.32588 146.248 9.16321 147.194 9.16321C148.14 9.16321 149.008 9.32588 149.797 9.65123C150.587 9.97658 151.273 10.4218 151.854 10.9783C152.427 11.5348 152.878 12.1941 153.2 12.9475C153.521 13.701 153.677 14.5058 153.677 15.3705V15.4048C153.677 16.261 153.512 17.0743 153.191 17.8278ZM150.865 15.4048C150.865 14.8911 150.778 14.403 150.596 13.9407C150.414 13.4784 150.162 13.076 149.823 12.7335C149.494 12.391 149.094 12.117 148.643 11.9116C148.192 11.7146 147.697 11.6119 147.159 11.6119C146.612 11.6119 146.118 11.7061 145.666 11.903C145.215 12.0999 144.833 12.3653 144.512 12.7164C144.191 13.0588 143.939 13.4612 143.757 13.915C143.575 14.3688 143.488 14.8568 143.488 15.3705V15.4048C143.488 15.9185 143.575 16.4065 143.757 16.8689C143.939 17.3312 144.191 17.7336 144.529 18.0761C144.859 18.4185 145.25 18.6925 145.701 18.898C146.152 19.1035 146.647 19.1977 147.194 19.1977C147.732 19.1977 148.227 19.1035 148.678 18.9066C149.129 18.7096 149.52 18.4442 149.841 18.0932C150.162 17.7507 150.414 17.3483 150.596 16.8945C150.778 16.4408 150.865 15.9527 150.865 15.439V15.4048Z" fill="#60666C"/>
<path d="M166.521 21.4324V13.5555L163.076 18.7097H163.006L159.595 13.6069V21.4324H156.939V9.36877H159.838L163.049 14.4716L166.261 9.36877H169.16V21.4324H166.521Z" fill="#60666C"/>
<path d="M182.284 15.422C182.023 15.9528 181.676 16.3895 181.225 16.7491C180.773 17.1087 180.253 17.3741 179.654 17.5539C179.055 17.7337 178.413 17.8193 177.727 17.8193H175.679V21.441H172.988V9.36877H177.987C178.725 9.36877 179.376 9.47152 179.958 9.66844C180.53 9.86536 181.025 10.1565 181.424 10.5246C181.824 10.8928 182.136 11.3294 182.353 11.8431C182.57 12.3569 182.674 12.9219 182.674 13.5384V13.5726C182.665 14.2747 182.544 14.8912 182.284 15.422ZM179.94 13.5898C179.94 12.9904 179.749 12.5367 179.359 12.2284C178.968 11.9202 178.439 11.7661 177.762 11.7661H175.679V15.4562H177.814C178.491 15.4562 179.012 15.285 179.385 14.934C179.758 14.5829 179.94 14.1463 179.94 13.6326V13.5898Z" fill="#60666C"/>
<path d="M194.643 21.4326L193.523 18.727H188.35L187.231 21.4326H184.488L189.73 9.28333H192.213L197.455 21.4326H194.643ZM190.937 12.4683L189.314 16.3811H192.56L190.937 12.4683Z" fill="#60666C"/>
<path d="M208.79 21.4324L202.871 13.761V21.4324H200.215V9.36877H202.697L208.425 16.8004V9.36877H211.081V21.4324H208.79Z" fill="#60666C"/>
<path d="M221.025 16.6292V21.441H218.335V16.6806L213.631 9.36877H216.773L219.689 14.2148L222.657 9.36877H225.712L221.025 16.6292Z" fill="#60666C"/>
<path d="M88.8243 27.0859H86.3145V26.439H92.0871V27.0859H89.5773V33.4835H88.8243V27.0859Z" fill="#60666C"/>
<path d="M100.466 31.5985H96.4912L95.633 33.4835H94.8477L98.1105 26.439H98.8553L102.118 33.4835H101.325L100.466 31.5985ZM100.191 30.9995L98.4748 27.2137L96.7584 30.9995H100.191Z" fill="#60666C"/>
<path d="M111.29 29.9613H112.011V32.6449C111.339 33.2359 110.376 33.5394 109.388 33.5394C107.218 33.5394 105.623 32.0219 105.623 29.9533C105.623 27.8846 107.218 26.3671 109.396 26.3671C110.481 26.3671 111.412 26.7106 112.052 27.3815L111.582 27.8527C110.983 27.2697 110.262 27.03 109.428 27.03C107.663 27.03 106.368 28.268 106.368 29.9453C106.368 31.6146 107.663 32.8605 109.42 32.8605C110.1 32.8605 110.74 32.7088 111.29 32.3174V29.9613Z" fill="#60666C"/>
<path d="M117.209 26.439H117.962V32.8365H121.962V33.4835H117.209V26.439Z" fill="#60666C"/>
<path d="M126.277 26.439H127.03V33.4835H126.277V26.439Z" fill="#60666C"/>
<path d="M138.383 26.439V33.4835H137.76L133.169 27.7648V33.4835H132.416V26.439H133.039L137.638 32.1576V26.439H138.383Z" fill="#60666C"/>
<path d="M148.818 32.8365V33.4835H143.766V26.439H148.664V27.0859H144.519V29.5858H148.211V30.2168H144.519V32.8365H148.818Z" fill="#60666C"/>
<path d="M165.352 26.439V33.4835H164.607V30.2328H160.138V33.4835H159.385V26.439H160.138V29.5778H164.607V26.439H165.352Z" fill="#60666C"/>
<path d="M175.786 32.8365V33.4835H170.734V26.439H175.633V27.0859H171.495V29.5858H175.187V30.2168H171.495V32.8365H175.786Z" fill="#60666C"/>
<path d="M185.495 33.4838L183.86 31.2235C183.674 31.2475 183.496 31.2555 183.285 31.2555H181.366V33.4918H180.613V26.4473H183.285C185.099 26.4473 186.2 27.3499 186.2 28.8594C186.2 29.9696 185.609 30.7443 184.564 31.0718L186.305 33.4838H185.495ZM185.455 28.8514C185.455 27.7252 184.702 27.0783 183.269 27.0783H181.374V30.6085H183.269C184.702 30.6165 185.455 29.9616 185.455 28.8514Z" fill="#60666C"/>
<path d="M196.099 32.8365V33.4835H191.047V26.439H195.945V27.0859H191.808V29.5858H195.5V30.2168H191.808V32.8365H196.099Z" fill="#60666C"/>
<path d="M54.6182 20.7282L45.0233 37.3058H35.0703L44.6652 20.7282L35.0703 4.15735H45.0233L54.6182 20.7282Z" fill="#60666C"/>
<path d="M41.6661 20.7282L32.0712 37.3058H22.125L31.7131 20.7282L22.125 4.15735H32.0712L41.6661 20.7282Z" fill="#60666C"/>
<path d="M13.0098 10.783L9.17188 4.15735H19.1249L22.956 10.783H13.0098Z" fill="#60666C"/>
<path d="M28.713 20.7282L19.1249 37.2991H9.17188L18.7667 20.7282L15.0437 14.2958H24.9899L28.713 20.7282Z" fill="#60666C"/>
</svg>
