<svg width="251" height="40" viewBox="0 0 251 40" fill="none" xmlns="http://www.w3.org/2000/svg">
<g clip-path="url(#clip0_1411_586)">
<path d="M115.489 32.7432L114.97 32.2301C114.776 32.4225 114.581 32.5508 114.354 32.6791C114.16 32.7753 113.9 32.8395 113.641 32.8395C113.414 32.8395 113.219 32.8074 113.025 32.7112C112.83 32.6149 112.668 32.5187 112.538 32.3584C112.408 32.198 112.311 32.0376 112.214 31.8452C112.149 31.6527 112.117 31.4282 112.117 31.2037C112.117 30.9792 112.149 30.7547 112.214 30.5623C112.279 30.3698 112.408 30.2094 112.538 30.0491C112.668 29.8887 112.83 29.7925 113.025 29.6963C113.219 29.6001 113.414 29.568 113.641 29.568C113.9 29.568 114.127 29.6321 114.354 29.7283C114.549 29.8246 114.743 29.9849 114.938 30.1453L115.457 29.5359C115.359 29.4397 115.23 29.3435 115.1 29.2472C114.97 29.151 114.841 29.0869 114.711 29.0227C114.581 28.9586 114.419 28.9265 114.224 28.8624C114.062 28.8303 113.868 28.7982 113.641 28.7982C113.284 28.7982 112.96 28.8624 112.668 28.9907C112.376 29.119 112.117 29.2793 111.922 29.5038C111.695 29.7283 111.533 29.9849 111.436 30.2736C111.306 30.5623 111.273 30.883 111.273 31.2037C111.273 31.5245 111.338 31.8452 111.468 32.1338C111.598 32.4225 111.76 32.6791 111.954 32.8715C112.149 33.096 112.408 33.2564 112.7 33.3847C112.992 33.513 113.284 33.5772 113.641 33.5772C113.868 33.5772 114.062 33.5451 114.224 33.513C114.419 33.4809 114.581 33.4168 114.711 33.3526C114.873 33.2885 115.003 33.1923 115.132 33.0961C115.23 32.9998 115.359 32.8715 115.489 32.7432ZM121.878 28.9265H121.067V31.5565C121.067 31.9735 120.97 32.2942 120.743 32.5187C120.548 32.7432 120.256 32.8395 119.899 32.8395C119.543 32.8395 119.251 32.7432 119.024 32.5187C118.829 32.2942 118.7 31.9735 118.7 31.5565V28.9586H117.889V31.5565C117.889 31.8773 117.921 32.1659 118.019 32.4225C118.116 32.6791 118.246 32.8715 118.408 33.064C118.57 33.2243 118.797 33.3526 119.024 33.4489C119.251 33.5451 119.543 33.5772 119.835 33.5772C120.126 33.5772 120.418 33.5451 120.645 33.4489C120.905 33.3526 121.099 33.2243 121.261 33.064C121.424 32.9036 121.553 32.6791 121.651 32.4225C121.748 32.1659 121.78 31.8773 121.78 31.5245V28.9265H121.878ZM125.315 30.1132C125.315 29.9529 125.38 29.8246 125.51 29.7283C125.639 29.6321 125.834 29.568 126.061 29.568C126.288 29.568 126.482 29.6001 126.677 29.6963C126.872 29.7925 127.099 29.8887 127.293 30.0491L127.715 29.4397C127.488 29.2472 127.228 29.119 126.936 29.0227C126.677 28.9265 126.353 28.8624 126.028 28.8624C125.801 28.8624 125.574 28.8944 125.38 28.9586C125.185 29.0227 125.023 29.119 124.893 29.2152C124.764 29.3435 124.634 29.4718 124.569 29.6321C124.504 29.7925 124.439 29.9849 124.439 30.1774C124.439 30.4019 124.472 30.5623 124.537 30.7226C124.602 30.883 124.699 31.0113 124.829 31.1075C124.958 31.2037 125.12 31.2999 125.315 31.3641C125.51 31.4282 125.737 31.4924 125.964 31.5565C126.191 31.6207 126.353 31.6527 126.482 31.7169C126.612 31.749 126.709 31.8131 126.807 31.8773C126.872 31.9414 126.936 32.0056 126.969 32.0697C127.001 32.1338 127.001 32.198 127.001 32.2942C127.001 32.4867 126.936 32.6149 126.774 32.7112C126.612 32.8074 126.418 32.8715 126.191 32.8715C125.899 32.8715 125.639 32.8074 125.412 32.7112C125.185 32.6149 124.958 32.4546 124.731 32.2621L124.245 32.8395C124.537 33.096 124.829 33.2564 125.153 33.3847C125.477 33.513 125.834 33.5772 126.191 33.5772C126.418 33.5772 126.645 33.5451 126.872 33.4809C127.066 33.4168 127.261 33.3206 127.39 33.2243C127.52 33.096 127.65 32.9678 127.715 32.8074C127.78 32.647 127.844 32.4546 127.844 32.2301C127.844 32.0376 127.812 31.8773 127.747 31.7169C127.682 31.5886 127.585 31.4603 127.455 31.332C127.326 31.2358 127.163 31.1396 127.001 31.0754C126.807 31.0113 126.612 30.9471 126.353 30.883C126.126 30.8188 125.964 30.7868 125.801 30.7226C125.672 30.6905 125.542 30.6264 125.477 30.5623C125.38 30.4981 125.347 30.434 125.315 30.3698C125.347 30.2736 125.315 30.2094 125.315 30.1132ZM132.384 29.6642H133.844V28.9265H130.082V29.6642H131.541V33.4809H132.352V29.6642H132.384ZM140.751 31.2037C140.751 30.883 140.686 30.5623 140.589 30.2736C140.459 29.9849 140.297 29.7283 140.102 29.5359C139.875 29.3114 139.648 29.151 139.357 29.0227C139.065 28.8944 138.74 28.8303 138.384 28.8303C138.027 28.8303 137.703 28.8944 137.411 29.0227C137.119 29.151 136.86 29.3114 136.633 29.5359C136.406 29.7604 136.243 30.017 136.146 30.3057C136.016 30.5943 135.952 30.883 135.952 31.2358C135.952 31.5565 136.016 31.8773 136.146 32.1659C136.276 32.4546 136.438 32.7112 136.633 32.9036C136.86 33.1281 137.087 33.2885 137.378 33.4168C137.67 33.5451 137.995 33.6092 138.351 33.6092C138.708 33.6092 139.032 33.5451 139.324 33.4168C139.616 33.2885 139.875 33.1281 140.102 32.9036C140.329 32.6791 140.492 32.4225 140.589 32.1338C140.686 31.8131 140.751 31.5245 140.751 31.2037ZM139.908 31.2037C139.908 31.4282 139.875 31.6207 139.778 31.8452C139.713 32.0376 139.584 32.2301 139.454 32.3584C139.324 32.5187 139.162 32.6149 138.967 32.7112C138.773 32.8074 138.578 32.8395 138.351 32.8395C138.124 32.8395 137.897 32.8074 137.703 32.7112C137.508 32.6149 137.346 32.5187 137.216 32.3584C137.087 32.198 136.957 32.0376 136.892 31.8452C136.827 31.6527 136.762 31.4282 136.762 31.2037C136.762 30.9792 136.795 30.7868 136.892 30.5623C136.957 30.3698 137.087 30.1774 137.216 30.0491C137.346 29.8887 137.508 29.7925 137.703 29.6963C137.897 29.6001 138.092 29.568 138.319 29.568C138.546 29.568 138.773 29.6001 138.967 29.6963C139.162 29.7925 139.324 29.8887 139.454 30.0491C139.584 30.2094 139.713 30.3698 139.778 30.5623C139.875 30.7868 139.908 30.9792 139.908 31.2037ZM147.139 30.2094V33.4809H147.95V28.9265H147.075L145.68 31.0754L144.286 28.9265H143.41V33.4809H144.221V30.2094L145.68 32.3584H145.713L147.139 30.2094ZM156.803 32.7432L156.284 32.2301C156.09 32.4225 155.895 32.5508 155.668 32.6791C155.474 32.7753 155.214 32.8395 154.955 32.8395C154.728 32.8395 154.533 32.8074 154.339 32.7112C154.144 32.6149 153.982 32.5187 153.852 32.3584C153.722 32.198 153.625 32.0376 153.528 31.8452C153.463 31.6527 153.431 31.4282 153.431 31.2037C153.431 30.9792 153.463 30.7547 153.528 30.5623C153.593 30.3698 153.722 30.2094 153.852 30.0491C153.982 29.8887 154.144 29.7925 154.339 29.6963C154.533 29.6001 154.728 29.568 154.955 29.568C155.214 29.568 155.441 29.6321 155.668 29.7283C155.863 29.8246 156.057 29.9849 156.252 30.1453L156.771 29.5359C156.673 29.4397 156.544 29.3435 156.414 29.2472C156.284 29.151 156.155 29.0869 156.025 29.0227C155.895 28.9586 155.733 28.9265 155.538 28.8624C155.376 28.8303 155.182 28.7982 154.955 28.7982C154.598 28.7982 154.274 28.8624 153.982 28.9907C153.69 29.119 153.431 29.2793 153.236 29.5038C153.009 29.7283 152.847 29.9849 152.75 30.2736C152.62 30.5623 152.587 30.883 152.587 31.2037C152.587 31.5245 152.652 31.8452 152.782 32.1338C152.912 32.4225 153.074 32.6791 153.268 32.8715C153.463 33.096 153.722 33.2564 154.014 33.3847C154.306 33.513 154.598 33.5772 154.955 33.5772C155.182 33.5772 155.376 33.5451 155.538 33.513C155.733 33.4809 155.895 33.4168 156.025 33.3526C156.187 33.2885 156.317 33.1923 156.446 33.0961C156.544 32.9998 156.673 32.8715 156.803 32.7432ZM161.7 28.8944H160.954L158.911 33.4809H159.754L160.241 32.3904H162.413L162.867 33.4809H163.71L161.7 28.8944ZM162.089 31.6848H160.5L161.278 29.8566L162.089 31.6848ZM168.251 28.9265H166.175V33.4809H168.315C168.575 33.4809 168.802 33.4489 169.029 33.3847C169.223 33.3206 169.418 33.2564 169.58 33.1281C169.742 33.0319 169.839 32.9036 169.937 32.7432C170.034 32.5829 170.066 32.4225 170.066 32.198C170.066 32.0376 170.034 31.9093 170.002 31.781C169.969 31.6527 169.904 31.5565 169.807 31.4603C169.742 31.3641 169.645 31.2999 169.515 31.2358C169.418 31.1716 169.288 31.1075 169.159 31.0754C169.256 31.0434 169.321 30.9792 169.418 30.9151C169.483 30.8509 169.58 30.7868 169.612 30.6905C169.677 30.5943 169.71 30.5302 169.742 30.4019C169.775 30.3057 169.807 30.1774 169.807 30.017C169.807 29.6642 169.677 29.3755 169.386 29.151C169.094 29.0227 168.705 28.9265 168.251 28.9265ZM168.088 30.8509H166.986V29.6321H168.153C168.413 29.6321 168.607 29.6963 168.769 29.7925C168.899 29.8887 168.964 30.0491 168.964 30.2415C168.964 30.466 168.899 30.6264 168.737 30.7226C168.575 30.7868 168.348 30.8509 168.088 30.8509ZM168.315 32.7753H166.986V31.5245H168.283C168.607 31.5245 168.834 31.5886 168.996 31.6848C169.159 31.781 169.223 31.9414 169.223 32.1338C169.223 32.3584 169.159 32.4867 168.996 32.6149C168.834 32.7112 168.607 32.7753 168.315 32.7753ZM172.661 28.9265V33.4809H173.472V28.9265H172.661ZM179.601 32.0697L177.136 28.8944H176.39V33.4809H177.201V30.2415L179.73 33.4809H180.411V28.9265H179.601V32.0697ZM186.67 28.9265H183.233V33.4809H186.702V32.7432H184.043V31.5565H186.378V30.8188H184.043V29.6321H186.67V28.9265ZM191.275 29.6642H192.734V28.9265H188.972V29.6642H190.432V33.4809H191.242V29.6642H191.275ZM195.847 30.1132C195.847 29.9529 195.912 29.8246 196.042 29.7283C196.172 29.6321 196.366 29.568 196.593 29.568C196.82 29.568 197.015 29.6001 197.209 29.6963C197.404 29.7925 197.631 29.8887 197.825 30.0491L198.247 29.4397C198.02 29.2472 197.761 29.119 197.469 29.0227C197.209 28.9265 196.885 28.8624 196.561 28.8624C196.334 28.8624 196.107 28.8944 195.912 28.9586C195.718 29.0227 195.555 29.119 195.426 29.2152C195.296 29.3435 195.166 29.4718 195.101 29.6321C195.037 29.7925 194.972 29.9849 194.972 30.1774C194.972 30.4019 195.004 30.5623 195.069 30.7226C195.134 30.883 195.231 31.0113 195.361 31.1075C195.491 31.2037 195.653 31.2999 195.847 31.3641C196.042 31.4282 196.269 31.4924 196.496 31.5565C196.723 31.6207 196.885 31.6527 197.015 31.7169C197.144 31.749 197.242 31.8131 197.339 31.8773C197.404 31.9414 197.469 32.0056 197.501 32.0697C197.534 32.1338 197.534 32.198 197.534 32.2942C197.534 32.4867 197.469 32.6149 197.307 32.7112C197.144 32.8074 196.95 32.8715 196.723 32.8715C196.431 32.8715 196.172 32.8074 195.945 32.7112C195.718 32.6149 195.491 32.4546 195.264 32.2621L194.777 32.8395C195.069 33.096 195.361 33.2564 195.685 33.3847C196.009 33.513 196.366 33.5772 196.723 33.5772C196.95 33.5772 197.177 33.5451 197.404 33.4809C197.598 33.4168 197.793 33.3206 197.923 33.2243C198.052 33.096 198.182 32.9678 198.247 32.8074C198.312 32.647 198.377 32.4546 198.377 32.2301C198.377 32.0376 198.344 31.8773 198.279 31.7169C198.215 31.5886 198.117 31.4603 197.988 31.332C197.858 31.2358 197.696 31.1396 197.534 31.0754C197.339 31.0113 197.144 30.9471 196.885 30.883C196.658 30.8188 196.496 30.7868 196.334 30.7226C196.204 30.6905 196.074 30.6264 196.009 30.5623C195.912 30.4981 195.88 30.434 195.847 30.3698C195.847 30.2736 195.847 30.2094 195.847 30.1132Z" fill="#60666C"/>
<path d="M71.2889 22.2232L69.4404 20.363C68.9216 20.8441 68.4027 21.1969 67.8839 21.4855C67.365 21.7742 66.7164 21.9025 65.9706 21.9025C65.4193 21.9025 64.9004 21.8063 64.414 21.5817C63.9276 21.3572 63.5384 21.0686 63.2141 20.6837C62.8898 20.2988 62.6304 19.8819 62.4359 19.3687C62.2413 18.8555 62.144 18.3423 62.144 17.765C62.144 17.2198 62.2413 16.6745 62.4359 16.1934C62.6304 15.7123 62.8898 15.2633 63.2141 14.9105C63.5384 14.5256 63.96 14.2369 64.4464 14.0445C64.9329 13.82 65.4193 13.7238 65.9706 13.7238C66.6516 13.7238 67.2353 13.8521 67.7866 14.1086C68.3379 14.3652 68.8567 14.718 69.3756 15.1991L71.224 13.0823C70.9321 12.7936 70.6079 12.505 70.2511 12.2484C69.8944 11.9918 69.5053 11.7994 69.0837 11.6069C68.6621 11.4466 68.2081 11.2862 67.6893 11.19C67.1704 11.0937 66.6191 11.0296 66.003 11.0296C64.9977 11.0296 64.0573 11.222 63.2141 11.5748C62.371 11.9277 61.6576 12.4088 61.0414 13.0182C60.4253 13.6275 59.9713 14.3652 59.6146 15.1671C59.2903 15.9689 59.0957 16.867 59.0957 17.7971V17.8292C59.0957 18.7593 59.2578 19.6253 59.6146 20.4592C59.9388 21.2931 60.4253 21.9987 61.0414 22.6081C61.6576 23.2175 62.371 23.6986 63.1817 24.0514C64.0248 24.4042 64.9004 24.5646 65.8733 24.5646C66.5219 24.5646 67.1056 24.5004 67.6244 24.4042C68.1433 24.308 68.6297 24.1476 69.0513 23.9231C69.4729 23.7307 69.8944 23.4741 70.2511 23.1854C70.6079 22.9288 70.9646 22.6081 71.2889 22.2232ZM89.7407 17.7971V17.765C89.7407 16.8349 89.5786 15.9689 89.2219 15.135C88.8652 14.3332 88.3787 13.5955 87.7626 13.0182C87.1465 12.4088 86.4006 11.9277 85.5574 11.5748C84.7143 11.222 83.7739 11.0296 82.7362 11.0296C81.7309 11.0296 80.7904 11.222 79.9149 11.5748C79.0393 11.9277 78.2934 12.4088 77.6773 13.0182C77.0612 13.6275 76.5747 14.3652 76.218 15.1671C75.8613 15.9689 75.6992 16.867 75.6992 17.7971V17.8292C75.6992 18.7593 75.8613 19.6253 76.218 20.4592C76.5747 21.261 77.0612 21.9987 77.6773 22.576C78.2934 23.1854 79.0393 23.6665 79.8824 24.0193C80.7256 24.3721 81.666 24.5646 82.7037 24.5646C83.709 24.5646 84.6494 24.3721 85.525 24.0193C86.4006 23.6665 87.1465 23.1854 87.7626 22.576C88.3787 21.9666 88.8652 21.2289 89.2219 20.4271C89.5786 19.6253 89.7407 18.7272 89.7407 17.7971ZM86.6924 17.8292C86.6924 18.3744 86.5952 18.9197 86.4006 19.4008C86.206 19.8819 85.9466 20.3309 85.5899 20.6837C85.2332 21.0686 84.8116 21.3572 84.3252 21.5497C83.8387 21.7421 83.2874 21.8704 82.7037 21.8704C82.12 21.8704 81.5687 21.7742 81.0823 21.5497C80.5959 21.3252 80.1743 21.0365 79.8176 20.6516C79.4609 20.2667 79.169 19.8498 78.9744 19.3366C78.7799 18.8234 78.6826 18.3103 78.6826 17.7329V17.765C78.6826 17.2198 78.7799 16.6745 78.9744 16.1934C79.169 15.7123 79.4284 15.2633 79.7852 14.9105C80.1419 14.5256 80.531 14.2369 81.0174 14.0445C81.5039 13.82 82.0552 13.7238 82.6389 13.7238C83.2226 13.7238 83.7414 13.82 84.2603 14.0445C84.7467 14.269 85.1683 14.5577 85.525 14.9426C85.8817 15.3274 86.1736 15.7444 86.3682 16.2576C86.5627 16.7707 86.66 17.2839 86.66 17.8612V17.8292H86.6924ZM108.193 24.3401V11.2541H105.047L101.61 16.8028L98.1398 11.2862H94.9942V24.3721H97.8803V15.8727L101.577 21.3893H101.642L105.371 15.8085V24.3401H108.193ZM124.504 15.8406V15.8085C124.504 15.135 124.374 14.5256 124.147 13.9804C123.92 13.4351 123.596 12.954 123.142 12.5371C122.721 12.1522 122.169 11.8314 121.553 11.6069C120.937 11.3824 120.224 11.2862 119.413 11.2862H113.997V24.3721H116.916V20.4271H119.121C119.867 20.4271 120.548 20.3309 121.196 20.1384C121.845 19.946 122.396 19.6573 122.883 19.2725C123.369 18.8876 123.758 18.4065 124.018 17.8292C124.374 17.2518 124.504 16.5783 124.504 15.8406ZM121.553 15.8727C121.553 16.4179 121.359 16.899 120.937 17.2839C120.548 17.6688 119.964 17.8612 119.251 17.8612H116.948V13.8521H119.186C119.932 13.8521 120.483 14.0124 120.905 14.3652C121.326 14.686 121.553 15.1991 121.553 15.8406V15.8727ZM142.21 24.3401L136.535 11.1579H133.844L128.169 24.3401H131.12L132.32 21.4214H137.897L139.097 24.3401H142.21ZM136.924 18.8555H133.422L135.173 14.6218L136.924 18.8555ZM158.652 24.3401V11.2541H155.765V19.3045L149.572 11.2541H146.88V24.3401H149.766V16.033L156.155 24.3401H158.652ZM176.195 11.2541H172.888L169.677 16.5141L166.532 11.2541H163.127L168.218 19.1762V24.3401H171.137V19.1442L176.195 11.2541ZM198.085 24.3401V11.2541H195.199V19.3045L189.005 11.2541H186.313V24.3401H189.199V16.033L195.588 24.3401H198.085ZM216.796 24.3401L211.121 11.1579H208.429L202.754 24.3401H205.705L206.905 21.4214H212.483L213.683 24.3401H216.796ZM211.51 18.8555H208.008L209.759 14.6218L211.51 18.8555ZM234.697 24.3401V11.2541H231.551L228.114 16.8028L224.644 11.2862H221.498V24.3721H224.384V15.8727L228.081 21.3893H228.146L231.843 15.8085V24.3401H234.697ZM250.587 24.3401V21.7742H243.42V19.0479H249.646V16.4821H243.42V13.82H250.489V11.2541H240.534V24.3401H250.587Z" fill="#60666C"/>
<path fill-rule="evenodd" clip-rule="evenodd" d="M25.0551 4.14612H26.5799H29.6904H44.9688H46.1581H47.3474V6.52889V38.078V40.4607H46.1581H44.9688H25.787H25.0856H11.8199H9.99019H7.58103H5.17188V38.078V15.1853V6.52889V4.14612H7.58103H25.0551ZM11.1795 21.097H12.3689H20.2672H21.4566H22.6459V17.4172H20.2367V18.7443H12.3689V11.2643H20.2672V12.5914H22.6764V11.2643V10.4499V8.91166H12.3689H9.9597V21.1271H11.1795V21.097ZM16.3333 13.7978C17.0042 13.7978 17.5226 14.3407 17.5226 14.9741C17.5226 15.6377 16.9737 16.1504 16.3333 16.1504C15.6624 16.1504 15.144 15.6075 15.144 14.9741C15.1135 14.3407 15.6624 13.7978 16.3333 13.7978ZM16.3333 28.3961C17.0042 28.3961 17.5226 28.939 17.5226 29.5724C17.5226 30.2359 16.9737 30.7487 16.3333 30.7487C15.6624 30.7487 15.144 30.2058 15.144 29.5724C15.1135 28.939 15.6624 28.3961 16.3333 28.3961ZM20.2672 33.3124V31.9853H22.6764V33.3124V35.6952H20.2672H12.3689H9.9597V33.3124V25.8625V23.4797H12.3689H20.2672H22.6764V24.2036V25.018V25.8625V27.1896H20.2672V25.8625H12.3689V33.3426H19.3524H20.2672V33.3124ZM7.58103 6.52889V15.1853V16.9045V38.078H9.99019H11.8199H25.0856V16.8743V15.1551V12.7723V10.0276V6.52889H7.58103ZM36.2165 21.097C36.8874 21.097 37.4058 21.6399 37.4058 22.2733C37.4058 22.9368 36.8569 23.4496 36.2165 23.4496C35.5456 23.4496 35.0272 22.9067 35.0272 22.2733C35.0272 21.6399 35.5456 21.097 36.2165 21.097ZM29.8734 8.88149H42.5596V19.8603H40.1504V11.2643H32.2825V19.8905V24.7164V33.3426H40.1809V24.6862H42.5901V35.665H29.8734V8.88149ZM27.4642 6.52889H44.9688V38.078H27.4642V6.52889Z" fill="#60666C"/>
</g>
<defs>
<clipPath id="clip0_1411_586">
<rect width="249.96" height="38.5843" fill="white" transform="translate(0.626953 0.741638)"/>
</clipPath>
</defs>
</svg>
