<svg width="211" height="71" viewBox="0 0 211 71" fill="none" xmlns="http://www.w3.org/2000/svg">
<path d="M39.7928 44.5417H31.0214C30.6699 43.9726 30.4819 43.3127 30.4819 42.6286C30.4819 42.1504 30.5729 41.6903 30.7487 41.2605H39.9505H43.2905H47.8368V23.0565L40.9567 19.0912L34.0826 15.1199L27.2025 19.0852L20.3285 23.0565V41.2605H24.8809C25.1597 39.3535 26.0326 37.5131 27.4995 36.0542L34.0826 29.4797L35.2465 30.642L40.6718 36.0602C41.3932 36.7806 41.969 37.5918 42.4055 38.4575H38.4229L38.3501 38.3849L34.0887 34.129L29.8273 38.3849C29.0029 39.2082 28.4694 40.2132 28.227 41.2726L28.2209 41.2907C28.2088 41.3331 28.2027 41.3755 28.1906 41.4179C28.1724 41.5087 28.1542 41.5995 28.1421 41.6964L28.136 41.7266L28.13 41.769V41.7872C28.1239 41.8295 28.1179 41.8719 28.1118 41.9203C28.1057 41.993 28.0936 42.0656 28.0875 42.1322L28.0815 42.1928V42.2109L28.0754 42.2715V42.2896L28.0694 42.3502C28.0694 42.3986 28.0633 42.447 28.0633 42.4894V42.4955C28.0633 42.5439 28.0633 42.5863 28.0633 42.6347C28.0633 42.6831 28.0633 42.7316 28.0633 42.7739V42.78V42.8466V42.8526C28.0633 42.895 28.0694 42.9374 28.0694 42.9798V43.004L28.0754 43.0585V43.0827L28.0815 43.1372V43.1493C28.0875 43.1977 28.0875 43.2401 28.0936 43.2885C28.0997 43.3309 28.1057 43.3793 28.1118 43.4217V43.4338L28.1178 43.4883L28.1239 43.5246L28.13 43.5609L28.136 43.5852L28.1421 43.6396L28.1482 43.6639C28.1603 43.7486 28.1785 43.8334 28.1967 43.9121L28.2088 43.9544V43.9666L28.2209 44.015L28.2512 44.1421V44.1482L28.2694 44.2087L28.2755 44.2208L28.2876 44.2692L28.2997 44.3056L28.33 44.4085L28.3421 44.4509L28.3543 44.4872L28.3603 44.4993C28.6452 45.3771 29.1302 46.2004 29.8273 46.8966L34.0887 51.1525L38.3501 46.8966C39.023 46.2065 39.5079 45.4013 39.7928 44.5417ZM36.8408 24.0614V26.3377H34.5615V24.0614H36.8408ZM34.5615 20.8347H36.8408V23.111H34.5615V20.8347ZM33.6098 24.0614V26.3377H31.3306V24.0614H33.6098ZM31.3306 20.8347H33.6098V23.111H31.3306V20.8347ZM34.901 11.8205L42.5995 16.258H42.6055L51.1284 21.1738V44.5417H43.1935C42.8359 46.2549 41.9993 47.8834 40.6718 49.2031L34.0826 55.7837L27.4995 49.2031C26.172 47.8773 25.3355 46.2489 24.9778 44.5417H17.043V21.1738L25.5658 16.258H25.5719L34.0826 11.3483L34.901 11.8205Z" fill="#60666C"/>
<path d="M205.503 38.1995H208.757V30.6651C208.757 27.1184 206.626 25.1725 203.631 25.1725C201.98 25.1725 200.589 25.8722 199.753 26.9554V25.3546H196.5V38.1995H199.753V31.1061C199.753 29.0451 200.896 27.9332 202.652 27.9332C204.37 27.9332 205.503 29.0451 205.503 31.1061V38.1995ZM193.803 34.1639H190.299C189.877 35.0171 189.119 35.7168 187.727 35.7168C186.105 35.7168 184.799 34.6528 184.636 32.7452H194.033C194.1 32.3235 194.129 31.9113 194.129 31.4895C194.129 27.6648 191.509 25.1341 187.794 25.1341C183.983 25.1341 181.344 27.7031 181.344 31.7675C181.344 35.8031 184.06 38.4008 187.794 38.4008C190.971 38.4008 193.102 36.5316 193.803 34.1639ZM187.698 27.8086C189.368 27.8086 190.712 28.8726 190.76 30.5693H184.655C184.914 28.8055 186.143 27.8086 187.698 27.8086ZM179.482 34.1639H175.978C175.556 35.0171 174.798 35.7168 173.406 35.7168C171.784 35.7168 170.479 34.6528 170.315 32.7452H179.712C179.779 32.3235 179.808 31.9113 179.808 31.4895C179.808 27.6648 177.188 25.1341 173.473 25.1341C169.663 25.1341 167.023 27.7031 167.023 31.7675C167.023 35.8031 169.74 38.4008 173.473 38.4008C176.65 38.4008 178.781 36.5316 179.482 34.1639ZM173.377 27.8086C175.047 27.8086 176.391 28.8726 176.439 30.5693H170.335C170.594 28.8055 171.822 27.8086 173.377 27.8086ZM161.725 31.7962C161.725 29.3135 162.886 28.5754 164.816 28.5754H165.67V25.1629C163.885 25.1629 162.531 26.016 161.725 27.3389V25.345H158.471V38.19H161.725V31.7962ZM148.124 21.8079C143.44 21.8079 139.86 25.2396 139.86 30.0804C139.86 34.9212 143.431 38.3337 148.143 38.3337C152.463 38.3337 155.409 35.3238 156.062 32.0263V29.1985H147.289V31.6812H152.856C152.367 33.9722 150.764 35.4101 148.259 35.4101C145.245 35.4101 143.2 33.3683 143.2 30.0804C143.2 26.8596 145.216 24.7986 148.124 24.7986C149.842 24.7986 151.186 25.5176 151.935 26.8883H155.668C154.622 23.6387 151.743 21.8079 148.124 21.8079ZM132.431 34.1639H128.928C128.505 35.0171 127.747 35.7168 126.355 35.7168C124.733 35.7168 123.428 34.6528 123.265 32.7452H132.661C132.728 32.3235 132.757 31.9113 132.757 31.4895C132.757 27.6648 130.137 25.1341 126.422 25.1341C122.612 25.1341 119.972 27.7031 119.972 31.7675C119.972 35.8031 122.689 38.4008 126.422 38.4008C129.599 38.4008 131.73 36.5316 132.431 34.1639ZM126.326 27.8086C127.997 27.8086 129.34 28.8726 129.388 30.5693H123.284C123.543 28.8055 124.771 27.8086 126.326 27.8086ZM118.129 34.5378C118.033 29.8312 110.912 31.2882 110.912 28.9493C110.912 28.2112 111.535 27.7223 112.745 27.7223C114.021 27.7223 114.808 28.3933 114.904 29.3902H118.014C117.832 26.8404 115.951 25.1437 112.841 25.1437C109.664 25.1437 107.754 26.8596 107.754 28.9876C107.754 33.6942 115.02 32.2372 115.02 34.5282C115.02 35.2663 114.319 35.851 113.042 35.851C111.747 35.851 110.835 35.1129 110.72 34.1352H107.447C107.591 36.522 109.837 38.4008 113.062 38.4008C116.21 38.4008 118.129 36.7329 118.129 34.5378ZM104.951 25.3546H101.678V32.4289C101.678 34.4898 100.565 35.6018 98.7985 35.6018C97.0804 35.6018 95.9478 34.4898 95.9478 32.4289V25.3546H92.6939V32.889C92.6939 36.4166 94.8536 38.3625 97.8482 38.3625C99.4512 38.3625 100.862 37.6627 101.678 36.5795V38.1995H104.951V25.3546ZM80.4849 31.7771C80.4849 29.2081 82.0398 27.9715 83.7579 27.9715C85.476 27.9715 87.0789 29.1985 87.0789 31.7771C87.0789 34.3269 85.428 35.5826 83.7099 35.5826C81.9726 35.573 80.4849 34.3269 80.4849 31.7771ZM90.4191 31.7771C90.4191 27.7223 87.5205 25.1437 83.8059 25.1437C80.0914 25.1437 77.1927 27.7127 77.1927 31.7771C77.1927 35.8127 80.005 38.4104 83.7195 38.4104C87.4437 38.4008 90.4191 35.8127 90.4191 31.7771ZM71.5489 38.1995H74.8027V22.0187H71.5489V28.6713H64.6093V22.0187H61.3555V38.1995H64.6093V31.317H71.5489V38.1995Z" fill="#60666C"/>
<path d="M185.197 47.5845V46.7217H182.586V45.8001H184.853V44.9374H182.586V44.055H185.165V43.1922H181.544V47.5845H185.197ZM177.794 44.7119C177.794 44.8982 177.73 45.055 177.579 45.1629C177.44 45.2805 177.235 45.3295 176.978 45.3295H175.903V44.0648H176.956C177.214 44.0648 177.418 44.1138 177.569 44.2217C177.719 44.3295 177.783 44.4864 177.783 44.6923V44.7119H177.794ZM179.008 47.5845L177.837 46.0158C178.149 45.908 178.396 45.7511 178.578 45.5256C178.772 45.3001 178.869 45.0158 178.869 44.653V44.6432C178.869 44.1922 178.707 43.8295 178.396 43.5746C178.073 43.3197 177.633 43.1922 177.064 43.1922H174.861V47.5845H175.914V46.1825H176.741L177.773 47.5845H179.008ZM172.175 47.5845V46.7217H169.564V45.8001H171.831V44.9374H169.564V44.055H172.143V43.1922H168.522V47.5845H172.175ZM165.643 47.5845V43.1922H164.59V44.9374H162.634V43.202H161.581V47.5845H162.634V45.8197H164.59V47.5845H165.643ZM156.843 47.5845V46.7217H154.232V45.8001H156.499V44.9374H154.232V44.055H156.811V43.1922H153.19V47.5845H156.843ZM150.311 47.5845V43.1922H149.269V45.8982L147.013 43.1922H146.035V47.5845H147.077V44.7903L149.408 47.5845H150.311ZM143.112 47.5845V43.1922H142.06V47.5845H143.112ZM139.481 47.5845V46.7119H137.085V43.1922H136.032V47.5845H139.481ZM133.282 46.9668V45.0648H131.197V45.8982H132.261V46.5256C131.992 46.7021 131.659 46.7904 131.262 46.7904C131.047 46.7904 130.854 46.7511 130.671 46.6825C130.499 46.6139 130.338 46.5158 130.209 46.3884C130.08 46.2609 129.972 46.1139 129.908 45.9472C129.833 45.7805 129.801 45.5942 129.801 45.3884V45.3786C129.801 45.1923 129.833 45.0158 129.908 44.8491C129.983 44.6825 130.08 44.5354 130.198 44.4177C130.327 44.2903 130.467 44.1923 130.639 44.1236C130.811 44.055 130.982 44.0158 131.176 44.0158C131.315 44.0158 131.444 44.0256 131.552 44.0452C131.67 44.0648 131.777 44.0942 131.874 44.1334C131.971 44.1726 132.068 44.2217 132.164 44.2707C132.261 44.3295 132.347 44.3883 132.444 44.457L133.11 43.7217C132.992 43.6236 132.863 43.5354 132.723 43.4667C132.594 43.3883 132.444 43.3295 132.293 43.2805C132.143 43.2314 131.982 43.1922 131.799 43.1628C131.627 43.1334 131.423 43.1236 131.208 43.1236C130.843 43.1236 130.51 43.1824 130.198 43.3001C129.887 43.4177 129.629 43.5844 129.403 43.7903C129.177 43.9962 129.006 44.2413 128.877 44.5158C128.748 44.7903 128.683 45.0844 128.683 45.3982V45.408C128.683 45.7315 128.748 46.0354 128.866 46.3099C128.995 46.5845 129.167 46.8198 129.382 47.0257C129.607 47.2217 129.865 47.3786 130.177 47.4963C130.488 47.6041 130.832 47.6629 131.208 47.6629C131.649 47.6629 132.035 47.5943 132.379 47.457C132.744 47.3198 133.035 47.1629 133.282 46.9668ZM124.525 45.7511H123.247L123.881 44.3295L124.525 45.7511ZM126.448 47.5845L124.386 43.1628H123.408L121.345 47.5845H122.419L122.86 46.6041H124.891L125.331 47.5845H126.448ZM119.228 44.0844V43.1922H115.242V44.0844H116.704V47.5845H117.757V44.0844H119.228ZM109.774 44.7119C109.774 44.8982 109.709 45.055 109.57 45.1629C109.43 45.2805 109.226 45.3295 108.968 45.3295H107.894V44.0648H108.946C109.204 44.0648 109.408 44.1138 109.559 44.2217C109.709 44.3295 109.774 44.4864 109.774 44.6923V44.7119ZM110.988 47.5845L109.817 46.0158C110.128 45.908 110.375 45.7511 110.558 45.5256C110.751 45.3001 110.848 45.0158 110.848 44.653V44.6432C110.848 44.1922 110.687 43.8295 110.375 43.5746C110.053 43.3197 109.613 43.1922 109.043 43.1922H106.841V47.5845H107.894V46.1825H108.721L109.752 47.5845H110.988ZM104.036 45.6727V43.1922H102.984V45.7021C102.984 46.055 102.887 46.3198 102.704 46.4962C102.522 46.6727 102.264 46.7609 101.941 46.7609C101.619 46.7609 101.361 46.6727 101.179 46.4864C100.996 46.3001 100.899 46.0354 100.899 45.6727V43.1922H99.8463V45.7021C99.8463 46.3492 100.029 46.8394 100.405 47.1629C100.781 47.4864 101.286 47.6531 101.931 47.6531C102.253 47.6531 102.543 47.6139 102.801 47.5355C103.059 47.457 103.284 47.3296 103.467 47.1629C103.65 46.9962 103.789 46.7904 103.886 46.5452C103.983 46.3001 104.036 46.006 104.036 45.6727ZM96.1503 45.408C96.1503 45.5942 96.1181 45.7707 96.0429 45.9374C95.9677 46.1041 95.871 46.2511 95.7528 46.3688C95.6239 46.4962 95.4734 46.5943 95.2908 46.6629C95.1081 46.7315 94.9147 46.7707 94.7106 46.7707C94.4957 46.7707 94.3023 46.7315 94.1197 46.6629C93.9478 46.5943 93.7866 46.4864 93.6577 46.3688C93.5288 46.2413 93.4213 46.0943 93.3569 45.9276C93.2817 45.7609 93.2494 45.5844 93.2494 45.3982V45.3884C93.2494 45.2021 93.2817 45.0256 93.3569 44.8589C93.4321 44.6923 93.5288 44.5452 93.647 44.4275C93.7759 44.3001 93.9263 44.2021 94.0982 44.1334C94.2701 44.0648 94.4742 44.0256 94.6891 44.0256C94.904 44.0256 95.0974 44.0648 95.2693 44.1334C95.4519 44.2021 95.6024 44.3099 95.7313 44.4275C95.8602 44.555 95.9677 44.7021 96.0321 44.8687C96.1073 45.0354 96.1396 45.2119 96.1396 45.3982V45.408H96.1503ZM97.2569 45.3884V45.3786C97.2569 45.0648 97.1925 44.7707 97.0635 44.4962C96.9346 44.2217 96.7627 43.9864 96.5371 43.7805C96.3115 43.5746 96.0429 43.4177 95.7313 43.3001C95.4197 43.1824 95.0759 43.1236 94.7106 43.1236C94.3346 43.1236 94.0015 43.1824 93.6792 43.3001C93.3676 43.4177 93.099 43.5844 92.8734 43.7903C92.6478 43.9962 92.4651 44.2413 92.3362 44.5158C92.2072 44.7903 92.1428 45.0844 92.1428 45.3982V45.408C92.1428 45.7217 92.2072 46.0158 92.3362 46.2903C92.4651 46.5649 92.637 46.8002 92.8626 47.006C93.0883 47.2119 93.3569 47.3688 93.6684 47.4864C93.98 47.6041 94.3238 47.6629 94.6891 47.6629C95.0652 47.6629 95.3982 47.6041 95.7205 47.4864C96.0321 47.3688 96.3007 47.2021 96.5263 46.9962C96.752 46.7904 96.9346 46.5452 97.0635 46.2707C97.1925 45.9962 97.2569 45.7021 97.2569 45.3884ZM89.9725 43.202H88.7692L87.5981 44.9668L86.4485 43.202H85.2129L87.0609 45.859V47.5845H88.1138V45.8394L89.9725 43.202Z" fill="#60666C"/>
</svg>
